<svg height="512pt" viewBox="0 -49 512 512" width="512pt" xmlns="http://www.w3.org/2000/svg"><path d="m489.1875 0h-73.800781c-4.144531 0-7.5 3.359375-7.5 7.5 0 4.144531 3.355469 7.5 7.5 7.5h73.800781c4.308594 0 7.8125 3.503906 7.8125 7.8125v275.832031h-482v-275.832031c0-4.308594 3.503906-7.8125 7.8125-7.8125h359.914062c4.144532 0 7.5-3.355469 7.5-7.5s-3.355468-7.5-7.5-7.5h-359.914062c-12.582031 0-22.8125 10.234375-22.8125 22.8125v322.058594c0 9.765625 7.945312 17.710937 17.710938 17.710937h181.757812v36.34375h-30.96875c-4.144531 0-7.5 3.355469-7.5 7.5s3.355469 7.5 7.5 7.5h175c4.144531 0 7.5-3.355469 7.5-7.5s-3.355469-7.5-7.5-7.5h-30.96875v-36.34375h73.667969c4.144531 0 7.5-3.359375 7.5-7.5 0-4.144531-3.355469-7.5-7.5-7.5h-368.488281c-1.496094 0-2.710938-1.21875-2.710938-2.710937v-31.226563h482v31.226563c0 1.492187-1.214844 2.710937-2.710938 2.710937h-75.429687c-4.140625 0-7.5 3.355469-7.5 7.5 0 4.140625 3.359375 7.5 7.5 7.5h75.429687c9.765626 0 17.710938-7.945312 17.710938-17.710937v-322.058594c0-12.578125-10.230469-22.8125-22.8125-22.8125zm-191.65625 398.925781h-83.0625v-36.347656h83.0625zm0 0"/><path d="m46.378906 208.886719c-4.144531 0-7.5 3.355469-7.5 7.5v46.800781c0 4.144531 3.355469 7.5 7.5 7.5h58.402344c4.144531 0 7.5-3.355469 7.5-7.5v-199.039062c0-4.144532-3.355469-7.5-7.5-7.5h-58.402344c-4.144531 0-7.5 3.355468-7.5 7.5v118.484374c0 4.140626 3.355469 7.5 7.5 7.5 4.140625 0 7.5-3.359374 7.5-7.5v-86.933593h43.402344v159.988281h-43.402344v-39.304688c0-4.140624-3.359375-7.496093-7.5-7.496093zm7.5-128.1875v-9.050781h43.402344v9.050781zm0 0"/><path d="m413.683594 138.046875h58.40625c4.144531 0 7.5-3.355469 7.5-7.5v-66.398437c0-4.144532-3.355469-7.5-7.5-7.5h-58.40625c-4.140625 0-7.5 3.355468-7.5 7.5v66.398437c0 4.144531 3.359375 7.5 7.5 7.5zm7.5-15v-27.347656h43.40625v27.347656zm43.40625-51.398437v9.050781h-43.40625v-9.050781zm0 0"/><path d="m413.683594 244.371094h58.40625c4.144531 0 7.5-3.355469 7.5-7.5v-66.398438c0-4.144531-3.355469-7.5-7.5-7.5h-58.40625c-4.140625 0-7.5 3.355469-7.5 7.5v66.398438c0 4.144531 3.359375 7.5 7.5 7.5zm7.5-15v-27.347656h43.40625v27.347656zm43.40625-51.398438v9.050782h-43.40625v-9.050782zm0 0"/><path d="m324.316406 160.199219v-62.359375c0-7.476563-6.082031-13.554688-13.554687-13.554688h-62.363281c-7.472657 0-13.554688 6.078125-13.554688 13.554688v18.539062c-3.132812.226563-6.203125 1.523438-8.59375 3.914063l-44.097656 44.097656c-5.285156 5.285156-5.285156 13.886719 0 19.171875l44.097656 44.09375c2.644531 2.644531 6.113281 3.964844 9.585938 3.964844 3.46875 0 6.941406-1.320313 9.585937-3.964844l44.09375-44.09375c2.699219-2.699219 4.011719-6.261719 3.953125-9.804688h17.292969c7.472656-.003906 13.554687-6.082031 13.554687-13.558593zm-74.472656-14.269531 12.824219 12.824218h-12.824219zm28.046875 28.046874-42.054687 42.050782-42.054688-42.050782 41.0625-41.0625v27.285157c0 7.476562 6.082031 13.554687 13.554688 13.554687h29.273437zm31.425781-15.222656h-25.433594l-34.039062-34.035156v-25.4375h59.472656zm0 0"/><path d="m301.933594 223.675781c.417968 3.84375 3.667968 6.6875 7.445312 6.6875.269532 0 .546875-.011719.820313-.042969 4.121093-.449218 7.09375-4.152343 6.644531-8.269531l-1.0625-9.726562 9.726562 1.0625c4.125.460937 7.816407-2.523438 8.269532-6.640625.449218-4.117188-2.523438-7.820313-6.644532-8.269532l-19.003906-2.074218c-2.261718-.242188-4.511718.542968-6.117187 2.152344-1.609375 1.605468-2.398438 3.855468-2.152344 6.117187zm0 0"/><path d="m378.441406 60.703125v-10c0-6.792969-5.527344-12.320313-12.320312-12.320313h-10c-5.9375 0-10.90625 4.222657-12.0625 9.820313h-70.996094c-1.160156-5.597656-6.125-9.820313-12.0625-9.820313h-10c-5.9375 0-10.90625 4.222657-12.0625 9.820313h-70.996094c-1.160156-5.597656-6.125-9.820313-12.0625-9.820313h-10c-6.792968 0-12.320312 5.527344-12.320312 12.320313v10c0 5.855469 4.109375 10.757813 9.59375 12.003906v71.339844c-5.484375 1.246094-9.59375 6.148437-9.59375 12.003906v10c0 5.855469 4.109375 10.757813 9.59375 12.003907v71.339843c-5.484375 1.246094-9.59375 6.152344-9.59375 12.003907v10c0 6.792968 5.527344 12.320312 12.320312 12.320312h10c5.9375 0 10.90625-4.222656 12.0625-9.820312h70.996094c1.15625 5.597656 6.125 9.820312 12.0625 9.820312h10c6.792969 0 12.316406-5.527344 12.316406-12.320312v-10c0-6.792969-5.523437-12.316407-12.316406-12.316407h-10c-5.9375 0-10.90625 4.21875-12.0625 9.816407h-70.996094c-1.007812-4.863282-4.894531-8.679688-9.792968-9.597657v-71.148437c5.710937-1.070313 10.046874-6.085938 10.046874-12.101563v-10c0-6.015625-4.335937-11.027343-10.046874-12.097656v-71.148437c4.898437-.917969 8.785156-4.734376 9.792968-9.601563h70.992188c1.160156 5.597656 6.128906 9.820313 12.0625 9.820313h10c5.9375 0 10.90625-4.222657 12.066406-9.820313h70.992188c1.007812 4.867187 4.894531 8.683594 9.792968 9.601563v71.148437c-5.710937 1.070313-10.046875 6.082031-10.046875 12.097656v10c0 6.792969 5.523438 12.320313 12.316407 12.320313h10c6.792968 0 12.320312-5.527344 12.320312-12.320313v-10c0-5.855469-4.109375-10.757812-9.59375-12.003906v-71.339844c5.488281-1.246093 9.597656-6.148437 9.597656-12.003906zm-19.640625-7.320313h4.640625v4.636719h-4.640625zm-210.242187 0h4.640625v4.636719h-4.640625zm0 105.347657h4.640625v4.636719h-4.640625zm4.640625 109.988281h-4.640625v-4.640625h4.640625zm100.480469-4.640625h4.640624v4.640625h-4.640624zm4.640624-206.058594h-4.640624v-4.636719h4.640624zm105.121094 105.347657h-4.640625v-4.636719h4.640625zm0 0"/><path d="m322.292969 273.898438h34.234375c6.792968 0 12.320312-5.527344 12.320312-12.320313v-34.234375c0-5-2.984375-9.464844-7.605468-11.378906-4.617188-1.914063-9.886719-.867188-13.425782 2.667968l-34.234375 34.238282c-3.535156 3.535156-4.582031 8.804687-2.667969 13.425781 1.914063 4.617187 6.378907 7.601563 11.378907 7.601563zm31.554687-40.082032v25.082032h-25.078125zm0 0"/></svg>