<svg height="512pt" viewBox="0 -92 512 512" width="512pt" xmlns="http://www.w3.org/2000/svg"><path d="m493.636719 279.875h-6.894531v-256.078125c0-13.121094-10.675782-23.796875-23.796876-23.796875h-413.890624c-13.121094 0-23.796876 10.675781-23.796876 23.796875v177.101563c0 4.144531 3.359376 7.5 7.5 7.5 4.144532 0 7.5-3.355469 7.5-7.5v-177.101563c0-4.851563 3.945313-8.796875 8.796876-8.796875h413.890624c4.851563 0 8.796876 3.945312 8.796876 8.796875v256.078125h-161.765626c-6.117187 0-11.230468 4.386719-12.355468 10.179688h-83.238282c-1.128906-5.792969-6.242187-10.179688-12.359374-10.179688h-161.765626v-46.3125c0-4.144531-3.355468-7.5-7.5-7.5-4.140624 0-7.5 3.355469-7.5 7.5v46.3125h-6.894531c-10.125 0-18.363281 8.234375-18.363281 18.363281v11.65625c0 10.125 8.238281 18.363281 18.363281 18.363281h475.273438c10.125 0 18.363281-8.238281 18.363281-18.363281v-11.65625c0-10.128906-8.238281-18.363281-18.363281-18.363281zm3.363281 30.019531c0 1.855469-1.507812 3.363281-3.363281 3.363281h-475.273438c-1.855469 0-3.363281-1.507812-3.363281-3.363281v-11.65625c0-1.855469 1.507812-3.367187 3.363281-3.367187h181.480469c1.128906 5.792968 6.242188 10.179687 12.359375 10.179687h87.59375c6.117187 0 11.230469-4.386719 12.359375-10.179687h181.480469c1.851562 0 3.363281 1.511718 3.363281 3.367187zm0 0"/><path d="m241.261719 30.296875h-167.550781c-9.652344 0-17.5 7.851563-17.5 17.5v203.796875c0 9.648438 7.847656 17.5 17.5 17.5h364.578124c9.648438 0 17.5-7.851562 17.5-17.5v-147.027344c0-4.140625-3.355468-7.5-7.5-7.5-4.140624 0-7.5 3.359375-7.5 7.5v147.027344c0 1.378906-1.121093 2.5-2.5 2.5h-364.578124c-1.378907 0-2.5-1.121094-2.5-2.5v-203.796875c0-1.375 1.121093-2.5 2.5-2.5h167.546874c4.144532 0 7.5-3.355469 7.5-7.5 0-4.140625-3.355468-7.5-7.496093-7.5zm0 0"/><path d="m448.289062 79.40625c4.144532 0 7.5-3.359375 7.5-7.5v-24.109375c0-9.648437-7.851562-17.5-17.5-17.5h-164.367187c-4.144531 0-7.5 3.359375-7.5 7.5 0 4.144531 3.355469 7.5 7.5 7.5h164.367187c1.378907 0 2.5 1.125 2.5 2.5v24.109375c0 4.140625 3.359376 7.5 7.5 7.5zm0 0"/><path d="m239.730469 131.804688c.027343-3.757813-1.390625-7.527344-4.253907-10.390626l-51.445312-51.445312c-5.679688-5.679688-14.917969-5.679688-20.597656 0l-51.445313 51.445312c-5.679687 5.679688-5.679687 14.917969 0 20.597657l51.445313 51.445312c2.839844 2.839844 6.570312 4.257813 10.296875 4.257813.503906 0 1.007812-.03125 1.507812-.082032v21.492188c0 8.03125 6.53125 14.5625 14.5625 14.5625h72.757813c8.03125 0 14.5625-6.53125 14.5625-14.5625v-72.757812c0-8.027344-6.53125-14.5625-14.5625-14.5625zm-65.996094 50.738281-50.832031-50.832031 50.828125-50.828126 50.832031 50.828126-.09375.09375h-34.667969c-8.03125 0-14.5625 6.535156-14.5625 14.5625v34.667968zm35.734375-35.738281-19.230469 19.230468v-19.230468zm52.652344 71.882812h-71.882813v-31.4375l40.445313-40.445312h31.4375zm0 0"/><path d="m303.183594 223.207031c0 4.144531 3.355468 7.5 7.5 7.5h97.773437c4.140625 0 7.5-3.355469 7.5-7.5 0-4.140625-3.359375-7.5-7.5-7.5h-97.773437c-4.144532 0-7.5 3.359375-7.5 7.5zm0 0"/><path d="m408.457031 196.152344h-36.9375c-4.140625 0-7.5 3.359375-7.5 7.5 0 4.144531 3.359375 7.5 7.5 7.5h36.9375c4.144531 0 7.5-3.355469 7.5-7.5 0-4.140625-3.359375-7.5-7.5-7.5zm0 0"/><path d="m408.457031 167.515625h-36.9375c-4.140625 0-7.5 3.355469-7.5 7.5 0 4.140625 3.359375 7.5 7.5 7.5h36.9375c4.144531 0 7.5-3.359375 7.5-7.5 0-4.144531-3.359375-7.5-7.5-7.5zm0 0"/><path d="m348.703125 182.515625c4.144531 0 7.5-3.359375 7.5-7.5 0-4.144531-3.355469-7.5-7.5-7.5h-4.707031c-4.140625 0-7.5 3.355469-7.5 7.5 0 4.140625 3.359375 7.5 7.5 7.5zm0 0"/><path d="m389.683594 146.804688c14.148437 0 25.660156-11.511719 25.660156-25.660157 0-14.152343-11.511719-25.664062-25.660156-25.664062-14.152344 0-25.664063 11.511719-25.664063 25.664062 0 14.148438 11.511719 25.660157 25.664063 25.660157zm0-36.324219c5.878906 0 10.660156 4.785156 10.660156 10.664062 0 5.878907-4.78125 10.660157-10.660156 10.660157s-10.664063-4.78125-10.664063-10.660157c0-5.878906 4.785157-10.664062 10.664063-10.664062zm0 0"/></svg>